#tb 0: 1/25
0,          0,          0,        1,   144516, 8b4c8d3ae74da0306cbb7c6709f16ec5
0,          1,          1,        1,   144504, 041bcfd819fec93241baa2797e2c97c2
0,          2,          2,        1,   144384, 9a3efab6db020060e877bcd68f6153b5
0,          3,          3,        1,   144428, d650148e1b29eaf2ada94bad59214b06
0,          4,          4,        1,   144596, 8a070f1c074181d3ebc8ff93d8218c91
0,          5,          5,        1,   144456, d53157d4f6d4c97452061b05e9bd4589
0,          6,          6,        1,   144424, fc15bb77ea351dcb8790f6a228d9a899
0,          7,          7,        1,   144416, 36d9f2deea7d96c8c694a0464fbfb6f6
0,          8,          8,        1,   144328, 07850891af07fd9491b7d4957309c59a
0,          9,          9,        1,   144328, 98ec846ba6a928f1f8feaceffdc2ca47
0,         10,         10,        1,   144252, eecbc81aeef72a557681fff3ade0e1ea
0,         11,         11,        1,   144176, 716f45f97fbbee271c756b51c1442a04
0,         12,         12,        1,   144460, 4b53f968b67f0a3fcc751551685dc616
0,         13,         13,        1,   144320, a0989eba4abc67fc3f97286b5ebb6b6f
0,         14,         14,        1,   144256, b565b531adde9de04ac8dd18441f4b10
0,         15,         15,        1,   144240, 93866939e1799cc7a638e684d583c3fc
0,         16,         16,        1,   144320, 6289947dfb7c1c56f7f38c293325b08d
0,         17,         17,        1,   144360, d348dba72b01e64687d9772c6e408f16
0,         18,         18,        1,   144356, a7285a69d3351c0ff37fc4e052e4445e
0,         19,         19,        1,   144368, 6fc446cf8455acec4422dc87c9c3fd9a
0,         20,         20,        1,   144388, 54d73f606e23d78675cf505a2e877e2f
0,         21,         21,        1,   144424, 2d55f4fc58a611608c814bf624671103
0,         22,         22,        1,   144352, ccd87aa111216071adba2ac6867e5a70
0,         23,         23,        1,   144384, 5a159db181501aafac455eb6ec37645b
0,         24,         24,        1,   144384, 0cd8523c88838fb4e59200d324206fc5
0,         25,         25,        1,   144328, 7a537ae88e6b91ee637415fc1bdfdfb3
0,         26,         26,        1,   144416, 2beb77ab1ec30d463442ba1b0b995a22
0,         27,         27,        1,   144524, 032209c413e2906cea0ac1f229e731b0
0,         28,         28,        1,   144680, 370581756f4df5ecb7127d9bad3f219d
0,         29,         29,        1,   144656, b43f514332e63452f08cfcecca2c2820
0,         30,         30,        1,   144500, 8debbbdf18df1a82161356f93aa5da22
0,         31,         31,        1,   144504, 04b1d817b10d4529d0108311e131a395
0,         32,         32,        1,   144380, f64c22d9b822b2b7744ed17dc93c0fea
0,         33,         33,        1,   144176, b7fe2a1d51921876dc3294a28a8b73f4
0,         34,         34,        1,   144188, bdbaf871cf4f0f9762d487719bd5d70d
0,         35,         35,        1,   144356, b90c993423632180fcc924fb687a6e2b
0,         36,         36,        1,   144556, 2d88e31846cdb41ab346dd94fc473854
0,         37,         37,        1,   144524, 95b4f8749ee5dbeda91c0e650b13c250
0,         38,         38,        1,   144540, c34b4aa099ec50f3f10d52670a8e3d2e
0,         39,         39,        1,   144460, a4f79bdebaed29910d148293c6909766
0,         40,         40,        1,   144540, c359072ba35fb124eb6da7a74e7d746b
0,         41,         41,        1,   144356, 6c759d3621208fe60018d0bac631fbe3
0,         42,         42,        1,   144340, 421a7417934af7f46c121c45b7ee9d28
0,         43,         43,        1,   144436, 7954efe1687e9d823018aef879ac5958
0,         44,         44,        1,   144488, 338bfdc6ac006a086c19ba256226d4f8
0,         45,         45,        1,   144604, ff31f6f7706968bb150c98fd17ce59ac
0,         46,         46,        1,   144600, a532db975d958b0b17406b3e7cae78a5
0,         47,         47,        1,   144520, b1c007e9f754c2ddf039f3d4767cdcb1
0,         48,         48,        1,   144472, a03290fb08b8b054f18fee2209f5bd13
0,         49,         49,        1,   144508, 7d9eda64f4fc11c95dcd63a1130cb5ab
